<?xml version="1.0" standalone="no"?>
<!DOCTYPE svg PUBLIC "-//W3C//DTD SVG 20010904//EN"
 "http://www.w3.org/TR/2001/REC-SVG-20010904/DTD/svg10.dtd">
<svg version="1.0" xmlns="http://www.w3.org/2000/svg"
 width="688.000000pt" height="688.000000pt" viewBox="0 0 688.000000 688.000000"
 preserveAspectRatio="xMidYMid meet">
<metadata>
Created by potrace 1.14, written by Peter Selinger 2001-2017
</metadata>
<g transform="translate(0.000000,688.000000) scale(0.100000,-0.100000)"
fill="#000000" stroke="none">
<path d="M3273 6230 c-12 -5 -24 -18 -28 -30 -7 -21 10 -87 26 -104 12 -14 11
-43 -2 -52 -6 -3 -25 8 -43 25 -58 57 -66 47 -66 -83 0 -111 1 -115 22 -118
29 -4 38 -38 11 -38 -11 0 -28 7 -39 15 -22 16 -110 20 -119 5 -4 -6 -20 0
-39 15 -39 29 -58 31 -96 8 -27 -15 -30 -15 -54 0 -35 24 -67 21 -111 -8 -31
-22 -44 -25 -79 -20 -60 9 -108 -14 -148 -69 -28 -40 -37 -46 -68 -46 -59 0
-110 -53 -110 -114 0 -16 -10 -32 -30 -46 -34 -24 -60 -77 -60 -121 0 -39 -17
-45 -48 -17 -15 14 -35 28 -45 31 -19 7 -57 -8 -69 -26 -4 -6 -38 -12 -76 -13
-78 -1 -114 -19 -134 -65 -9 -21 -29 -37 -65 -53 -62 -29 -86 -62 -87 -124 -1
-33 -9 -59 -29 -87 -33 -48 -35 -95 -5 -135 18 -25 19 -32 8 -45 -8 -9 -14
-38 -14 -65 -1 -38 4 -54 21 -71 20 -20 20 -24 7 -61 -13 -36 -12 -44 5 -83
11 -24 31 -51 45 -60 19 -13 26 -26 26 -51 0 -27 8 -39 40 -65 25 -20 40 -41
40 -55 0 -28 53 -74 86 -74 17 0 27 -8 34 -24 12 -33 48 -56 87 -56 20 0 41
-8 53 -20 11 -11 28 -20 38 -20 10 0 28 -13 39 -28 17 -24 19 -31 8 -46 -11
-15 -9 -26 16 -73 16 -30 29 -61 29 -68 0 -7 -18 -31 -39 -53 -70 -72 -64
-146 15 -172 40 -13 87 -10 209 15 388 80 542 94 1020 94 383 0 641 -14 920
-49 44 -6 121 -13 171 -16 86 -6 92 -5 113 17 15 17 21 36 21 70 0 43 -4 51
-35 75 -31 23 -35 32 -35 71 0 29 7 55 20 73 11 16 23 41 26 57 4 20 17 35 42
48 21 12 43 34 51 52 8 18 23 36 34 39 11 4 32 20 47 36 15 16 42 37 61 46 18
9 45 35 60 56 14 21 44 51 65 65 28 19 42 38 48 63 7 26 19 42 42 54 45 25 60
63 47 121 -10 41 -8 51 15 95 26 50 26 51 9 97 -13 38 -14 54 -6 82 10 30 8
43 -10 80 -11 24 -25 51 -31 59 -5 8 -14 33 -20 56 -12 48 -72 113 -112 121
-16 3 -28 10 -28 16 0 5 -11 25 -26 44 -23 30 -30 33 -77 33 -29 0 -58 -4 -66
-9 -10 -7 -23 -3 -39 10 -14 10 -36 19 -51 19 -36 1 -121 80 -121 112 0 24
-32 60 -81 91 -14 8 -29 28 -32 44 -7 35 -52 63 -101 63 -20 0 -36 4 -36 8 0
5 -16 25 -37 45 -34 35 -40 37 -98 37 -53 0 -65 4 -85 25 -33 35 -88 34 -130
-2 l-32 -26 -53 18 c-63 21 -92 16 -139 -25 -18 -17 -45 -30 -58 -30 -14 0
-37 -10 -52 -21 -15 -12 -29 -19 -32 -17 -2 3 0 62 5 131 9 124 7 160 -12 185
-13 17 -46 15 -53 -3 -4 -8 -13 -15 -21 -15 -15 0 -14 33 3 121 4 20 0 28 -13
31 -32 8 -237 7 -260 -2z m181 -116 c-17 -59 -17 -66 0 -90 11 -14 26 -19 63
-19 l48 0 3 -59 3 -58 -48 6 c-63 8 -78 -2 -69 -48 7 -37 21 -55 70 -89 37
-26 32 -37 -11 -24 -74 20 -207 6 -256 -28 -33 -23 -40 -18 -20 16 10 18 39
47 66 66 72 53 58 108 -32 120 -47 6 -48 7 -52 48 -4 30 -3 30 51 35 47 4 57
9 67 31 10 20 9 35 -2 74 -8 26 -15 51 -15 55 0 4 33 8 74 9 l74 2 -14 -47z
m640 -313 c31 -34 -3 -89 -48 -77 -33 8 -38 28 -15 65 22 36 39 39 63 12z
m-1287 -13 c41 -38 17 -102 -29 -77 -32 17 -41 47 -23 75 19 29 23 30 52 2z
m172 -5 c19 -23 20 -29 7 -47 -19 -29 -45 -26 -69 6 -20 27 -20 28 -2 48 24
27 39 25 64 -7z m935 1 c23 -22 20 -47 -8 -73 -19 -18 -28 -21 -44 -12 -30 16
-32 34 -10 69 22 36 39 40 62 16z m-774 -52 c0 -16 -6 -37 -14 -47 -12 -17
-18 -18 -40 -7 -34 15 -36 64 -4 86 29 21 58 4 58 -32z m1138 7 c4 -32 -29
-63 -56 -55 -28 9 -35 35 -17 63 22 34 69 29 73 -8z m-1634 -22 c8 -12 8 -22
0 -34 -17 -27 -47 -27 -74 2 l-23 25 23 25 c21 22 26 24 44 12 11 -8 25 -21
30 -30z m1124 -2 c14 -30 7 -52 -21 -66 -17 -10 -23 -7 -38 12 -22 28 -24 50
-7 67 20 20 54 14 66 -13z m-868 -38 c0 -5 -10 -5 -22 -1 -29 8 -31 10 -24 23
8 12 46 -7 46 -22z m1095 3 c18 -20 17 -20 -14 -20 -29 0 -31 2 -21 20 6 11
12 20 14 20 2 0 11 -9 21 -20z m170 -48 c-2 -2 -20 4 -40 13 -37 15 -37 16
-20 35 17 19 18 19 40 -13 12 -18 21 -33 20 -35z m249 46 c8 -13 5 -23 -14
-43 -37 -40 -80 -28 -80 22 0 40 72 56 94 21z m-1690 3 c7 -10 -17 -32 -59
-55 -59 -32 -155 -97 -189 -128 -24 -22 -36 -23 -36 -3 0 27 3 30 21 27 30 -5
80 30 86 59 4 20 10 25 24 22 21 -6 129 59 129 77 0 12 17 13 24 1z m817 -18
c30 -16 49 -33 49 -44 0 -27 -12 -29 -76 -13 -72 19 -138 14 -193 -14 -49 -26
-74 -28 -91 -7 -13 16 -6 33 24 55 49 35 93 48 165 49 61 1 81 -3 122 -26z
m-1072 -8 c41 -20 45 -41 14 -65 -23 -18 -29 -19 -47 -7 -25 17 -32 52 -16 73
15 17 15 17 49 -1z m721 -34 c0 -23 -9 -31 -26 -24 -17 6 -18 25 -2 41 14 14
28 6 28 -17z m-196 -12 c103 -30 299 -133 320 -168 6 -9 -11 -129 -19 -139 -2
-2 -41 20 -87 49 -100 63 -167 95 -243 114 -109 29 -231 13 -312 -41 -71 -46
-47 -77 24 -33 38 24 107 36 117 21 3 -5 -17 -24 -45 -42 -64 -41 -119 -117
-149 -205 -19 -57 -24 -91 -24 -182 0 -61 5 -129 11 -150 7 -21 19 -66 28
-101 9 -35 29 -95 45 -133 l28 -70 -31 20 c-180 113 -288 408 -253 691 18 149
69 239 142 254 17 4 47 24 68 46 20 21 60 50 89 64 69 34 187 36 291 5z m674
9 c18 -18 15 -28 -8 -28 -13 0 -20 7 -20 20 0 23 10 26 28 8z m607 -15 c6 -27
62 -65 87 -59 11 2 15 -1 11 -10 -7 -18 -10 -17 -63 16 -25 16 -64 38 -87 50
-24 11 -43 22 -43 24 0 1 20 3 44 3 39 0 45 -4 51 -24z m-142 -20 c153 -44
275 -162 312 -305 16 -57 10 -183 -11 -257 -22 -78 -83 -194 -147 -281 -71
-96 -219 -240 -246 -240 -12 0 -21 3 -21 6 0 4 19 30 43 58 97 117 144 200
171 304 36 144 2 293 -100 433 -19 26 -34 49 -34 51 0 6 82 -15 123 -31 56
-22 63 -13 22 30 -73 75 -165 109 -300 109 -130 0 -217 -36 -335 -139 l-45
-39 -27 71 c-34 87 -34 86 95 153 137 71 228 94 357 90 58 -1 122 -8 143 -13z
m-624 -25 c23 -12 41 -25 41 -29 0 -13 -93 -69 -116 -69 -42 0 -124 48 -124
72 0 5 15 17 33 28 44 27 114 26 166 -2z m989 10 c17 -17 15 -48 -5 -70 -21
-24 -38 -23 -57 3 -16 23 -11 47 13 66 20 16 34 16 49 1z m-2111 -74 c12 -20
12 -25 -9 -49 -27 -30 -55 -26 -64 10 -14 56 42 86 73 39z m2191 -90 c4 -39
-30 -74 -56 -58 -24 15 -26 41 -7 70 23 36 59 29 63 -12z m-1501 -52 c61 -25
176 -93 187 -111 3 -4 -2 -49 -11 -101 -30 -188 -33 -218 -39 -397 -4 -101 -8
-183 -11 -183 -15 0 -95 65 -125 102 -51 63 -58 80 -58 150 0 85 -25 128 -74
128 -52 0 -76 -31 -76 -95 0 -29 7 -66 16 -84 21 -41 6 -142 -32 -218 l-27
-53 -30 27 c-38 36 -126 168 -134 202 -3 14 -9 31 -14 36 -4 6 -15 59 -24 117
-14 95 -14 117 -1 197 18 111 61 197 124 249 64 52 87 60 178 61 68 1 94 -4
151 -27z m360 -16 c-8 -20 -36 -21 -43 -1 -4 8 0 22 7 31 11 13 14 13 27 0 8
-8 12 -22 9 -30z m1301 12 c10 -22 10 -31 0 -48 -30 -47 -78 -29 -78 30 0 54
54 67 78 18z m-2406 -20 c13 -21 13 -25 -2 -40 -23 -24 -42 -22 -69 6 -18 20
-21 28 -12 44 20 38 55 34 83 -10z m-180 7 c9 -19 8 -29 -5 -48 -33 -51 -96
-2 -67 52 15 30 57 28 72 -4z m2740 8 c24 -21 23 -60 -2 -73 -25 -13 -51 -1
-69 34 -11 21 -12 28 -1 41 16 20 49 19 72 -2z m-906 -19 c126 -53 204 -186
204 -348 -1 -88 -18 -152 -68 -251 -28 -57 -117 -175 -131 -175 -10 0 -29 52
-35 101 -5 35 -2 59 14 100 22 56 22 107 -1 135 -6 8 -29 14 -50 14 -54 0 -80
-41 -77 -119 l2 -55 -59 -53 c-32 -29 -61 -53 -65 -53 -3 0 -12 35 -19 78 -26
163 -44 250 -68 342 -14 52 -27 106 -30 120 -3 14 -11 31 -16 39 -9 10 -3 20
23 42 119 100 260 131 376 83z m-1986 -11 c0 -56 -61 -85 -82 -38 -9 21 -8 28
7 45 10 11 31 20 47 20 24 0 28 -4 28 -27z m1504 -45 c10 -24 22 -52 27 -63
41 -91 86 -269 115 -445 8 -52 19 -112 23 -132 6 -29 4 -41 -8 -52 -19 -17
-96 -56 -110 -56 -10 0 -14 63 -12 162 1 26 -5 61 -13 76 -8 16 -15 55 -16 88
0 57 -7 289 -9 348 -1 15 -8 41 -16 57 -16 30 -20 73 -7 65 5 -3 17 -24 26
-48z m-143 -7 c-6 -11 -12 -38 -12 -58 0 -21 0 -57 0 -80 0 -24 0 -51 0 -60 1
-10 -2 -39 -5 -64 -3 -27 -1 -56 5 -67 7 -14 8 -23 1 -27 -14 -9 -13 -88 2
-103 9 -9 9 -18 0 -37 -15 -32 -15 -60 -1 -87 15 -28 18 -188 3 -188 -6 0 -34
10 -63 21 -46 20 -51 25 -51 54 0 72 31 473 40 505 5 19 14 62 20 95 7 33 16
71 20 85 22 69 19 65 36 48 13 -12 14 -20 5 -37z m1223 -24 c8 -23 6 -31 -12
-50 -17 -17 -26 -19 -39 -11 -30 19 -38 40 -25 69 17 37 62 32 76 -8z m-1139
3 c18 -19 18 -22 2 -37 -16 -16 -18 -16 -39 4 -18 18 -19 24 -8 37 16 21 23
20 45 -4z m1581 -5 c19 -29 11 -60 -19 -76 -17 -10 -24 -8 -39 11 -32 39 -18
90 24 90 10 0 25 -11 34 -25z m-3177 -9 c17 -20 10 -67 -11 -80 -25 -15 -52 4
-56 40 -6 43 41 71 67 40z m456 -66 c0 -44 -25 -60 -63 -40 -37 21 -40 53 -6
79 24 19 30 20 48 7 14 -9 21 -24 21 -46z m2449 48 c63 -18 117 -58 151 -112
27 -44 30 -60 33 -142 7 -177 -61 -316 -242 -494 -42 -41 -76 -79 -76 -85 0
-18 -21 -34 -36 -28 -28 10 -13 39 51 96 120 107 158 187 157 328 0 51 -7 105
-16 133 -22 66 -21 80 7 71 48 -15 67 -17 67 -7 0 5 -6 14 -12 20 -17 13 -185
82 -201 82 -8 0 -23 12 -36 26 l-22 25 24 19 c13 11 30 33 37 50 14 34 42 39
114 18z m-2629 -72 l1 -64 -46 -4 c-52 -5 -119 -35 -133 -59 -6 -9 -7 -24 -3
-34 6 -17 8 -17 29 3 24 23 72 44 80 36 3 -3 -5 -21 -18 -40 -21 -31 -36 -77
-52 -158 -8 -40 15 -131 51 -201 39 -78 161 -199 244 -243 34 -18 62 -37 62
-41 0 -4 -6 -16 -14 -26 -13 -18 -17 -17 -87 27 -151 94 -246 200 -307 341
-34 79 -35 87 -40 234 l-4 152 47 56 c57 66 85 83 145 84 l45 1 0 -64z m1320
4 c33 -36 -9 -78 -45 -45 -24 22 -25 29 -4 49 20 21 27 20 49 -4z m1654 -53
c11 -27 -2 -54 -31 -63 -41 -12 -66 57 -32 90 19 20 51 6 63 -27z m-545 -13
c9 -8 16 -24 16 -34 0 -22 -25 -50 -45 -50 -20 0 -45 39 -38 59 16 43 40 52
67 25z m-2776 -6 c7 -7 12 -24 12 -38 0 -47 -37 -65 -72 -33 -23 21 -23 38 2
63 23 23 41 25 58 8z m532 -48 c25 -25 25 -45 -1 -71 -18 -18 -23 -19 -42 -6
-28 18 -33 53 -11 78 22 24 29 24 54 -1z m1129 10 c41 -21 35 -70 -8 -70 -47
0 -65 34 -35 64 18 19 20 19 43 6z m-1267 -105 c6 -16 19 -41 28 -55 10 -14
20 -43 23 -64 4 -25 18 -51 39 -73 29 -30 30 -33 11 -33 -30 0 -71 -36 -78
-71 -10 -46 11 -86 57 -106 41 -18 86 -82 73 -104 -11 -17 -107 43 -173 108
-89 88 -117 151 -117 268 0 103 11 128 80 177 l40 30 3 -24 c2 -13 8 -36 14
-53z m2507 15 c49 -50 65 -107 59 -203 -4 -55 -12 -87 -37 -135 -31 -61 -139
-182 -162 -182 -20 0 -2 87 32 155 30 61 30 64 15 97 -9 18 -26 39 -37 47 -20
12 -25 10 -56 -22 -28 -27 -36 -45 -40 -83 -3 -27 -12 -57 -20 -66 -8 -9 -52
-35 -98 -57 -73 -36 -92 -41 -152 -41 -41 0 -76 5 -87 13 -16 12 -13 16 27 45
25 18 49 32 53 32 4 0 18 -10 31 -22 52 -49 153 -13 153 53 0 19 9 34 29 48
16 12 38 39 49 62 11 22 39 56 61 76 35 30 41 40 41 75 0 30 -7 46 -28 68
l-28 28 53 16 c29 9 55 21 58 26 13 21 47 8 84 -30z m419 8 c32 -32 -5 -106
-45 -91 -22 9 -34 49 -23 78 10 27 47 34 68 13z m-3304 -60 c21 -30 20 -51 -4
-73 -20 -18 -21 -18 -45 5 -29 27 -31 46 -8 72 21 24 39 23 57 -4z m1181 -28
c3 -21 1 -57 -5 -80 -14 -52 -6 -66 102 -171 86 -84 177 -138 269 -159 82 -18
168 -2 280 55 77 39 76 37 187 141 l82 77 0 68 c0 52 3 68 16 73 43 17 59 -56
24 -109 -44 -67 -2 -241 74 -308 63 -55 160 -64 275 -24 75 27 200 101 202
121 5 86 21 129 47 124 30 -6 26 -55 -7 -107 -27 -41 -31 -57 -31 -114 0 -56
4 -70 26 -96 14 -17 43 -36 65 -42 63 -19 45 -59 -27 -59 -38 0 -47 5 -83 46
-22 25 -43 59 -46 76 -8 35 -4 35 -140 -7 -64 -20 -113 -28 -170 -29 -75 -1
-85 2 -136 32 -56 34 -100 91 -113 145 -8 36 -23 34 -87 -9 -59 -40 -217 -117
-264 -129 -16 -4 -72 -10 -123 -12 -76 -4 -102 -1 -150 17 -63 23 -127 64
-186 119 l-38 36 -27 -35 c-63 -83 -157 -166 -215 -188 -87 -33 -194 -25 -280
21 -34 18 -46 14 -46 -13 0 -36 -32 -100 -60 -120 -33 -24 -49 -25 -75 -6 -18
13 -18 16 17 54 35 39 40 52 52 143 8 64 -53 169 -99 169 -32 0 -62 36 -49 58
25 40 92 11 120 -52 8 -17 36 -60 62 -96 64 -88 130 -122 236 -123 67 0 80 3
128 32 29 18 65 49 79 69 28 39 61 130 80 222 10 52 9 58 -15 104 -31 59 -33
85 -6 114 27 29 47 19 55 -28z m487 23 c22 -20 23 -46 3 -63 -20 -16 -57 -6
-73 21 -11 18 -11 24 4 40 21 23 42 24 66 2z m-1114 -5 c31 -31 0 -105 -33
-78 -25 21 -14 90 15 90 3 0 11 -5 18 -12z m2131 -12 c7 -8 11 -30 9 -48 -2
-26 -8 -34 -26 -36 -47 -7 -69 43 -35 80 19 22 36 23 52 4z m587 -81 c18 -28
11 -60 -17 -75 -50 -27 -84 51 -37 84 30 21 35 20 54 -9z m-1594 -32 c25 -30
28 -51 10 -73 -15 -18 -21 -19 -50 -9 -40 14 -53 51 -27 79 22 25 47 25 67 3z
m913 -33 c18 -20 18 -21 -5 -45 -22 -23 -25 -24 -42 -8 -22 20 -23 31 -1 55
20 23 26 23 48 -2z m-2557 -39 c4 -54 -8 -69 -43 -51 -45 24 -29 105 20 98 16
-2 21 -12 23 -47z m610 -17 c-22 -22 -48 -11 -48 20 0 32 20 38 45 15 18 -18
18 -20 3 -35z m2542 -14 c24 -24 25 -47 3 -72 -20 -23 -42 -23 -59 0 -18 23
-17 43 2 70 19 27 28 28 54 2z m-1503 -32 c31 -29 32 -83 2 -99 -18 -9 -26 -7
-48 8 -33 25 -38 55 -14 87 22 31 31 32 60 4z m817 3 c21 -23 18 -70 -6 -85
-42 -26 -77 46 -42 85 9 10 20 19 24 19 4 0 15 -9 24 -19z m-1786 -10 c19 -12
11 -65 -10 -69 -24 -5 -42 32 -28 58 12 22 18 24 38 11z m-612 -62 c23 -25 9
-54 -27 -54 -28 0 -39 36 -19 61 16 19 23 18 46 -7z m2988 -41 c16 -26 -4 -53
-40 -53 -23 0 -30 5 -32 23 -7 47 47 69 72 30z m-2246 -10 c16 -16 15 -34 -4
-53 -15 -15 -18 -15 -35 1 -19 17 -25 45 -12 57 10 11 38 8 51 -5z m-654 -64
c9 -31 -19 -58 -45 -44 -23 13 -25 53 -3 75 14 14 19 14 29 3 7 -7 16 -23 19
-34z m1862 14 c10 -18 44 -61 77 -95 l60 -63 -49 7 c-27 5 -135 8 -241 8 -105
0 -189 3 -186 8 2 4 12 7 21 7 36 1 256 114 282 145 17 20 17 20 36 -17z
m-1110 -5 l26 -17 -34 -17 c-38 -21 -57 -24 -40 -7 7 7 12 22 12 35 0 27 3 28
36 6z m444 -83 c31 -15 76 -33 100 -40 81 -20 76 -24 -35 -31 -60 -3 -135 -9
-165 -13 -300 -36 -447 -55 -490 -66 -104 -24 -133 -30 -135 -28 -2 2 11 20
29 41 32 38 33 39 72 28 55 -15 116 -14 188 5 83 21 129 50 209 132 l69 69 51
-34 c29 -19 77 -48 107 -63z m1590 65 c10 -12 10 -21 2 -40 -14 -30 -23 -31
-40 -5 -9 15 -10 26 -2 40 13 24 23 25 40 5z m-2687 -67 c6 -8 7 -27 3 -41 -8
-34 -38 -35 -56 -2 -12 22 -11 27 5 45 20 22 33 22 48 -2z m2621 -25 c8 -19
-17 -48 -33 -39 -6 4 -11 18 -11 32 0 28 34 34 44 7z m-274 -65 c27 -35 26
-38 -12 -28 -18 4 -76 11 -128 15 -52 3 -99 10 -104 15 -5 5 -1 9 10 8 24 -1
121 28 154 47 27 16 20 20 80 -57z m-2235 12 c0 -28 -29 -40 -38 -15 -9 22 3
46 22 43 10 -2 16 -13 16 -28z m1730 -30 c223 -19 360 -32 425 -40 36 -5 91
-12 122 -16 66 -7 90 -26 66 -50 -13 -13 -26 -14 -94 -4 -77 12 -154 20 -364
41 -58 6 -263 13 -456 16 -282 4 -386 1 -530 -12 -379 -36 -542 -59 -740 -106
-28 -7 -59 -9 -69 -5 -17 6 -17 8 -1 25 9 10 36 21 59 25 41 6 150 26 257 47
62 13 132 24 235 39 39 6 86 13 105 16 175 27 772 42 985 24z m-55 -123 c54
-27 14 -77 -61 -77 -45 0 -83 28 -73 53 13 35 87 48 134 24z m-439 -7 c23 -13
25 -36 4 -44 -21 -8 -165 5 -165 15 0 4 7 15 16 23 18 19 114 22 145 6z m931
-38 c17 -16 17 -19 2 -41 -15 -21 -22 -23 -68 -17 -53 7 -96 28 -96 48 0 6 8
17 18 25 23 19 121 9 144 -15z m-1336 3 c12 -31 -15 -45 -87 -45 -76 0 -95 13
-59 42 29 24 138 26 146 3z m-390 -26 c20 -16 17 -55 -3 -64 -20 -8 -125 -26
-163 -28 -19 -2 -26 3 -28 22 -5 30 8 42 65 62 59 19 111 23 129 8z m1479 -88
c66 -7 145 -14 175 -16 30 -3 87 -9 125 -14 39 -5 95 -13 125 -17 55 -7 90
-26 90 -50 0 -22 -32 -24 -160 -8 -380 46 -570 58 -955 58 -417 0 -766 -27
-1090 -84 -103 -18 -176 -23 -187 -12 -13 13 -2 48 20 58 18 7 76 17 202 34
41 5 109 14 150 19 41 6 167 17 280 26 113 8 216 17 230 19 54 8 882 -2 995
-13z"/>
<path d="M1235 3870 c-144 -11 -212 -26 -288 -63 -40 -19 -96 -40 -124 -47
-39 -10 -78 -34 -153 -92 -56 -43 -114 -81 -131 -85 -36 -7 -37 -27 -4 -49
l25 -16 -46 -41 c-37 -33 -59 -68 -116 -186 -39 -80 -81 -158 -95 -172 -25
-27 -25 -27 -4 -41 17 -12 19 -17 8 -34 -22 -33 -40 -101 -34 -131 3 -15 11
-50 17 -77 15 -62 3 -96 -36 -96 -15 0 -36 7 -46 17 -23 20 -32 12 -24 -22 8
-32 60 -65 104 -65 38 0 38 -2 12 -45 -11 -18 -26 -53 -34 -78 -15 -50 -7 -99
32 -187 10 -25 22 -62 26 -82 6 -32 11 -38 31 -38 34 0 31 -12 -13 -60 -33
-34 -45 -40 -79 -40 -29 0 -46 6 -63 25 -13 14 -27 25 -32 25 -17 0 -7 -76 15
-114 45 -80 135 -97 236 -46 55 27 121 93 121 119 0 6 5 11 10 11 6 0 10 -22
10 -48 0 -36 7 -57 25 -82 18 -24 25 -47 25 -79 1 -57 13 -79 68 -125 43 -35
54 -40 80 -37 8 2 31 -9 51 -24 62 -42 151 -60 151 -30 0 8 5 15 11 15 16 0
94 -86 133 -145 41 -63 91 -173 83 -182 -4 -3 -24 -1 -44 5 -91 26 -108 28
-143 16 -19 -6 -49 -25 -66 -42 -96 -98 -55 -289 76 -354 64 -32 94 -34 174
-13 85 22 121 42 171 93 108 109 126 311 43 476 -19 37 -19 38 -1 31 71 -30
134 -45 194 -45 82 0 159 18 159 38 0 10 -7 12 -22 8 -49 -15 -150 -18 -208
-7 -54 11 -170 55 -170 65 0 6 43 -5 55 -14 6 -4 24 -6 40 -4 17 2 35 4 40 5
6 0 34 -3 62 -7 58 -7 187 10 242 32 19 8 35 13 37 11 2 -1 -10 -23 -26 -47
-16 -24 -32 -62 -36 -84 -4 -26 -19 -55 -40 -78 -41 -46 -47 -70 -42 -154 4
-61 6 -67 49 -109 50 -51 130 -85 196 -85 24 0 43 -4 43 -8 0 -17 -37 -42 -63
-42 -33 0 -33 -3 0 -46 32 -43 54 -55 118 -67 143 -25 154 -23 257 41 23 14
31 15 48 4 11 -6 31 -12 45 -12 29 0 93 53 101 84 3 13 22 30 47 41 53 25 84
84 96 181 9 76 6 91 -15 73 -19 -15 -18 -9 6 46 24 56 26 72 5 55 -22 -18 -69
-125 -85 -190 -7 -30 -16 -60 -21 -65 -4 -6 -4 -17 2 -25 8 -13 12 -12 24 4 8
11 15 27 15 35 0 9 7 25 15 35 8 10 12 23 9 27 -3 5 2 21 10 36 12 23 15 24
16 9 0 -11 -4 -33 -10 -50 -5 -17 -12 -43 -15 -58 -5 -27 -50 -88 -65 -88 -4
0 -10 9 -13 21 -4 13 -12 20 -24 17 -14 -2 -19 -14 -21 -54 -2 -42 -9 -57 -33
-80 -42 -40 -65 -25 -62 40 3 44 2 46 -17 36 -15 -8 -21 -6 -30 9 -12 24 -13
71 -1 71 5 0 17 3 26 7 14 5 16 2 10 -15 -3 -12 -4 -22 -1 -22 7 0 106 97 106
104 0 13 -29 5 -54 -15 l-26 -21 10 26 c5 14 6 27 2 27 -4 1 9 4 28 8 25 4 39
14 48 34 14 29 49 39 38 11 -3 -9 -6 -26 -6 -38 0 -22 -10 -38 -77 -127 -24
-31 -33 -52 -33 -81 0 -44 17 -51 26 -10 11 53 28 84 61 116 26 24 38 48 52
101 40 155 117 244 257 294 51 19 75 22 155 18 52 -3 104 -6 116 -8 12 -2 23
1 25 6 2 6 -8 11 -22 13 -14 2 -34 7 -45 12 -11 6 -56 11 -100 13 -44 2 -33 3
25 2 165 -4 187 -9 257 -63 31 -23 93 -111 93 -132 0 -6 -7 -10 -15 -10 -17 0
-21 -35 -5 -45 6 -3 10 1 10 9 0 9 4 16 9 16 6 0 3 -16 -5 -37 -9 -20 -13 -44
-11 -54 6 -24 -13 -86 -37 -122 -26 -38 -66 -57 -121 -57 -25 0 -45 -4 -45
-10 0 -5 5 -10 12 -10 6 0 8 -3 5 -6 -13 -13 -55 26 -76 69 -27 56 -27 120 2
176 25 49 71 89 65 56 -2 -12 4 -19 21 -22 30 -4 51 -21 51 -39 0 -8 5 -23 12
-33 9 -15 8 -24 -6 -46 -26 -39 -51 -29 -51 20 0 43 -22 58 -50 35 -24 -20
-18 -46 19 -84 57 -61 117 -39 145 55 19 62 -10 178 -56 221 -22 21 -33 23
-113 22 -150 -3 -245 -63 -300 -189 -34 -79 -34 -272 1 -284 14 -4 35 -27 83
-86 26 -33 28 -38 16 -61 -12 -22 -11 -27 16 -55 41 -44 163 -129 185 -129 10
0 20 4 24 9 7 12 139 -50 174 -82 60 -55 260 -87 321 -52 14 8 38 14 53 15 17
0 37 10 52 26 33 36 176 107 189 94 19 -19 45 -9 124 49 100 74 117 97 97 127
-13 19 -12 24 9 43 13 12 32 37 42 56 10 19 28 36 40 39 30 8 35 27 36 133 1
148 -55 259 -158 309 -73 36 -211 51 -259 28 -52 -24 -94 -142 -80 -226 8 -48
52 -98 85 -98 46 0 108 68 94 104 -7 18 -39 30 -54 21 -6 -4 -9 -23 -8 -43 3
-31 0 -37 -17 -37 -10 0 -26 12 -34 26 -13 23 -12 30 5 65 14 28 29 42 54 51
19 7 29 12 22 12 -7 1 -10 6 -7 11 9 15 51 -20 69 -58 10 -20 16 -59 16 -101
0 -63 -2 -70 -36 -109 -38 -45 -53 -52 -50 -24 1 14 -6 16 -47 14 -44 -3 -51
-1 -82 32 -37 39 -67 125 -59 167 4 16 0 30 -10 38 -9 8 -16 19 -16 25 0 6 5
3 11 -7 11 -19 29 -14 29 9 0 8 -9 14 -20 14 -20 0 -20 0 1 42 34 68 77 113
131 143 46 25 60 28 177 30 69 1 92 1 51 -2 -41 -2 -82 -6 -90 -10 -8 -4 -26
-8 -39 -9 -13 -2 -28 -7 -34 -13 -6 -6 34 -7 110 -4 141 7 193 -6 287 -70 83
-57 133 -141 161 -270 3 -16 22 -45 42 -65 36 -38 51 -65 62 -117 9 -38 23
-39 27 -1 4 35 -18 80 -58 122 -16 17 -37 57 -47 92 l-19 61 22 -10 c12 -6 26
-20 31 -32 7 -15 21 -23 43 -25 26 -3 32 -7 30 -22 -4 -21 46 -80 67 -80 10 0
15 -10 15 -28 0 -34 -23 -71 -34 -54 -4 7 -13 12 -20 12 -10 0 -12 -13 -8 -50
4 -40 1 -51 -12 -56 -32 -12 -93 68 -83 108 8 28 -2 48 -24 48 -13 0 -19 -7
-19 -21 0 -15 -4 -19 -16 -15 -9 3 -17 6 -20 6 -8 0 -38 67 -44 100 -4 19 -11
49 -15 65 -8 27 -7 29 8 16 10 -7 17 -23 17 -35 0 -43 27 -111 45 -115 15 -2
17 1 11 20 -4 13 -11 40 -16 59 -33 142 -71 220 -105 220 -8 0 -26 16 -40 35
-42 54 -122 88 -220 93 -54 3 -85 1 -89 -7 -4 -6 -20 -11 -37 -11 -16 0 -29
-4 -29 -10 0 -13 42 -12 100 1 58 13 159 -11 215 -52 22 -16 55 -39 74 -51 20
-13 41 -39 52 -65 22 -52 24 -62 7 -45 -32 32 -35 3 -14 -101 19 -88 42 -126
93 -151 24 -12 42 -28 43 -38 0 -9 16 -33 37 -53 39 -38 71 -44 113 -20 23 12
28 11 55 -9 17 -13 44 -30 62 -40 35 -18 128 -22 138 -6 3 6 24 10 46 10 51 0
89 20 122 64 33 43 33 46 1 46 -33 0 -64 17 -64 35 0 11 12 15 43 15 89 0 195
60 233 132 23 45 18 142 -10 187 -14 22 -30 41 -36 43 -6 2 -17 28 -24 59 -7
31 -25 73 -41 93 -32 42 -29 54 12 33 43 -23 179 -40 255 -32 41 4 75 2 87 -4
14 -8 22 -7 31 4 7 8 16 13 20 10 5 -3 11 -1 15 5 3 5 13 10 21 10 8 0 12 -5
9 -10 -4 -6 -11 -8 -16 -5 -5 4 -9 1 -9 -5 0 -7 -7 -10 -15 -6 -8 3 -15 1 -15
-3 0 -34 -211 -64 -289 -41 -20 6 -40 6 -50 0 -14 -7 -14 -9 -1 -13 8 -3 30
-10 49 -16 76 -24 199 -11 304 34 18 7 18 5 -2 -33 -40 -78 -51 -125 -51 -220
0 -80 4 -101 28 -155 41 -90 103 -149 183 -175 99 -33 140 -37 196 -18 74 26
113 67 146 156 21 57 21 88 0 142 -34 90 -89 123 -184 112 -33 -4 -62 -11 -65
-15 -9 -15 -44 -10 -44 5 0 50 139 260 199 302 19 14 22 13 27 0 11 -29 91
-12 151 31 17 13 45 23 62 23 22 0 44 11 72 38 47 42 69 85 69 136 0 21 10 50
25 72 17 24 25 51 25 78 l0 41 41 -48 c51 -59 141 -107 200 -107 85 0 159 72
159 155 0 35 -14 38 -40 10 -38 -40 -93 -35 -141 14 -46 46 -48 59 -12 63 23
2 28 8 30 36 2 17 15 60 29 95 38 87 38 165 2 236 -16 29 -28 55 -28 57 0 2
12 4 26 4 46 0 114 48 114 82 0 22 -10 23 -36 3 -29 -22 -63 -19 -75 9 -9 18
-7 41 5 96 18 79 15 116 -16 169 l-20 35 22 16 21 16 -23 21 c-24 23 -51 71
-118 215 -28 60 -55 102 -90 136 l-51 50 26 20 c34 27 32 39 -10 46 -20 4 -56
26 -87 52 -72 62 -123 94 -151 94 -13 0 -54 16 -91 35 -37 19 -74 35 -83 35
-8 0 -27 8 -41 19 -15 10 -43 23 -62 29 -56 19 -303 32 -450 25 -159 -7 -229
-25 -247 -64 -17 -36 0 -85 36 -104 15 -7 33 -20 40 -29 19 -23 -41 -4 -163
54 -141 65 -196 69 -246 18 -52 -54 -72 -112 -68 -195 3 -67 6 -75 38 -108 39
-41 90 -58 163 -54 45 3 51 1 59 -22 43 -110 58 -457 26 -599 -31 -141 -100
-262 -206 -362 -97 -90 -201 -144 -367 -189 -69 -19 -434 -19 -532 0 l-71 14
-39 -30 c-93 -73 -287 -153 -368 -153 -76 0 -254 68 -355 135 -61 40 -76 46
-103 40 -18 -3 -90 -12 -162 -19 -132 -13 -351 -6 -405 13 -14 5 -52 17 -85
26 -239 70 -422 267 -485 525 -41 168 -37 322 16 555 l16 71 63 -4 c76 -5 124
14 163 66 52 69 30 221 -42 291 -33 32 -38 33 -93 29 -42 -3 -85 -18 -155 -51
-102 -49 -168 -71 -168 -57 0 5 18 19 40 31 83 47 71 126 -22 152 -63 18 -323
27 -453 17z m4285 -84 c0 -2 -24 -18 -52 -34 -66 -37 -126 -99 -172 -176 -20
-33 -36 -54 -36 -48 0 22 49 110 82 147 33 39 111 96 133 99 8 1 18 5 21 9 8
8 24 10 24 3z m63 -33 c-29 -9 -53 -20 -53 -25 0 -5 34 -6 79 -2 64 5 83 4
102 -10 23 -16 23 -16 -18 -16 -55 0 -118 -24 -159 -60 -33 -29 -61 -43 -36
-18 7 7 12 16 12 20 0 15 -27 8 -45 -12 -10 -11 -22 -17 -27 -14 -5 3 -17 -1
-27 -10 -10 -9 -25 -14 -34 -10 -36 14 -34 -123 2 -160 19 -19 21 -19 39 -3
40 36 102 9 102 -44 0 -38 -44 -87 -85 -95 -43 -8 -83 12 -113 56 -53 77 -2
246 100 333 46 38 153 86 193 86 11 0 -4 -8 -32 -16z m-4226 1 c-3 -3 -12 -4
-19 -1 -8 3 -5 6 6 6 11 1 17 -2 13 -5z m72 -26 c66 -35 110 -77 139 -132 53
-102 63 -166 37 -230 -17 -41 -49 -65 -97 -72 -69 -12 -137 88 -93 136 21 24
67 26 85 5 26 -31 40 -19 61 50 13 44 1 118 -19 110 -8 -3 -23 2 -34 11 -10
10 -21 14 -24 11 -4 -4 -20 5 -36 18 -39 33 -54 22 -26 -18 21 -31 21 -31 -16
5 -44 43 -92 67 -144 75 -61 8 -70 13 -48 25 12 7 48 8 99 3 70 -6 79 -5 74 9
-8 20 -7 20 42 -6z m4391 -37 c0 -12 -28 -22 -34 -12 -3 5 -3 11 1 15 9 9 33
7 33 -3z m-3760 -11 c23 -12 42 -45 46 -78 l2 -24 -22 21 c-15 14 -35 21 -62
21 -35 0 -46 -6 -90 -52 -67 -69 -85 -98 -122 -188 -46 -111 -55 -162 -54
-295 1 -116 6 -145 51 -323 52 -200 160 -364 316 -479 17 -12 25 -22 18 -22
-6 -1 -18 6 -27 14 -8 8 -19 15 -25 15 -25 0 -7 -19 49 -54 33 -21 60 -39 60
-42 0 -14 -164 84 -213 127 -107 95 -214 262 -252 395 -9 32 -22 68 -28 79
-14 27 -21 356 -9 425 34 189 83 303 167 387 74 74 144 100 195 73z m2892 0
c49 -14 137 -95 171 -158 32 -59 72 -181 90 -272 15 -79 15 -355 0 -426 -41
-190 -135 -359 -273 -492 -51 -50 -92 -76 -195 -127 -71 -36 -143 -68 -160
-71 -46 -10 -18 10 35 25 70 19 253 131 215 131 -3 0 -24 -9 -45 -20 -54 -28
-50 -19 9 19 59 38 145 127 195 202 41 63 97 197 115 279 7 30 18 71 26 90 40
102 37 336 -5 460 -41 120 -118 242 -177 281 -38 26 -91 24 -120 -3 l-23 -21
0 22 c0 31 27 79 47 84 31 8 57 7 95 -3z m-3635 -41 c47 -23 103 -65 103 -79
0 -4 -17 -10 -37 -14 -21 -3 -73 -28 -116 -55 -101 -65 -132 -112 -140 -212
-3 -40 -11 -77 -17 -83 -5 -5 -10 -29 -10 -52 0 -31 -4 -43 -18 -46 -24 -7
-48 -112 -33 -151 6 -16 11 -43 11 -60 0 -31 21 -101 41 -138 7 -14 14 -16 33
-9 31 12 36 5 36 -49 0 -26 11 -73 25 -106 23 -54 23 -61 9 -72 -21 -15 -38
-8 -55 23 -7 14 -21 30 -31 35 -27 14 -35 -16 -14 -51 20 -34 20 -35 0 -54
-25 -25 -87 -20 -123 10 -38 31 -39 42 -6 50 50 12 86 99 55 130 -8 8 -7 25 1
55 23 86 -5 127 -133 192 -86 44 -140 96 -155 150 -6 20 -9 37 -7 37 3 0 17
-12 32 -26 44 -41 97 -64 150 -64 59 0 81 20 89 78 4 29 12 43 29 51 33 15 74
81 76 122 3 95 -33 139 -115 139 l-50 0 7 43 c7 41 38 102 73 142 43 49 157
97 211 90 19 -2 54 -14 79 -26z m4422 20 c130 -41 210 -123 228 -234 l6 -35
-56 0 c-49 0 -58 -3 -81 -31 -50 -59 -23 -191 48 -229 18 -9 26 -22 26 -39 0
-14 9 -41 20 -58 18 -30 24 -33 71 -33 57 0 76 8 136 56 48 39 58 42 43 14 -6
-11 -8 -20 -5 -20 11 0 -24 -56 -52 -81 -15 -15 -61 -44 -102 -65 -41 -22 -90
-53 -109 -71 -32 -31 -34 -35 -28 -85 8 -69 8 -76 0 -119 -7 -46 7 -74 49 -95
18 -9 34 -18 36 -20 3 -2 -8 -18 -24 -34 -24 -25 -37 -30 -75 -30 -25 0 -51 5
-58 12 -16 16 -15 43 3 58 19 16 19 46 1 53 -9 4 -25 -8 -41 -29 -25 -32 -57
-44 -69 -26 -3 5 4 33 16 63 12 30 24 79 27 109 6 52 7 55 32 52 19 -2 31 4
42 22 24 36 51 207 41 264 -4 26 -8 51 -8 56 -1 5 -10 12 -21 16 -14 5 -20 17
-21 41 -1 19 -7 52 -14 74 -7 22 -13 63 -14 91 -2 59 -27 99 -99 158 -46 38
-141 86 -169 86 -73 0 90 113 171 119 8 1 31 -4 50 -10z m434 -184 c62 -106
93 -185 83 -210 -5 -15 -10 -12 -29 16 -12 19 -30 35 -40 37 -15 3 -17 -7 -17
-83 0 -98 -12 -127 -65 -164 -24 -16 -44 -21 -72 -19 -41 3 -43 8 -27 72 6 27
5 28 -17 23 -13 -3 -37 1 -54 8 l-30 14 33 -6 c42 -7 41 10 -3 36 -19 11 -35
26 -35 32 0 7 3 9 7 6 3 -4 16 2 27 12 12 11 38 27 59 36 l37 15 -21 -36 c-11
-20 -18 -38 -16 -40 12 -12 41 14 62 55 31 60 31 32 0 -61 -41 -120 -29 -150
20 -48 16 33 30 59 31 57 2 -2 -4 -32 -12 -67 -8 -37 -11 -67 -6 -72 14 -14
59 109 67 183 7 63 8 66 31 61 24 -4 34 15 17 32 -4 4 -8 13 -8 19 0 7 -4 13
-10 14 -5 2 -10 -6 -10 -16 0 -11 -4 -23 -8 -27 -4 -5 -7 8 -5 28 1 20 6 34
10 32 4 -3 8 2 8 10 0 9 -6 16 -14 16 -7 0 -16 10 -19 21 -4 15 -11 20 -22 15
-10 -3 -14 -2 -10 5 4 5 2 15 -3 22 -6 7 -27 44 -47 82 l-36 70 45 -44 c24
-24 69 -85 99 -136z m3 124 c11 -11 23 -19 27 -19 11 0 132 -88 152 -111 l20
-22 -28 18 c-51 33 -41 5 21 -58 34 -34 62 -66 62 -70 0 -9 5 -15 50 -67 16
-19 30 -39 30 -44 0 -5 13 -31 30 -57 26 -43 28 -49 12 -49 -26 0 -69 48 -84
95 -10 32 -18 41 -40 43 -35 4 -37 -17 -7 -57 12 -16 18 -34 15 -40 -4 -6 -3
-11 3 -11 5 0 13 -9 16 -20 4 -11 29 -32 56 -46 74 -37 91 -71 85 -164 -3 -41
-8 -94 -12 -117 -5 -38 -3 -46 24 -73 l30 -30 -27 0 c-41 0 -101 71 -101 119
0 12 7 21 15 21 10 0 15 11 16 38 1 36 2 36 8 7 9 -43 26 -33 29 19 3 47 -30
128 -62 156 -23 18 -31 5 -17 -27 12 -27 12 -27 -6 -10 -11 9 -22 17 -25 17
-2 0 -4 -23 -4 -50 1 -34 5 -49 13 -46 12 5 33 -44 33 -78 -1 -19 -2 -19 -11
-3 -14 25 -39 21 -39 -5 0 -32 52 -139 112 -231 56 -85 68 -138 43 -187 -7
-14 -23 -55 -35 -92 -25 -75 -40 -87 -40 -32 0 49 -21 39 -36 -17 l-11 -44
-12 30 c-10 24 -19 159 -21 325 -1 11 -7 8 -20 -9 -11 -12 -17 -28 -13 -35 3
-6 1 -6 -8 2 -10 9 -10 15 -1 24 7 7 12 27 12 46 l0 35 20 -26 c27 -33 50 -99
58 -162 8 -55 25 -67 31 -20 4 30 4 30 16 -10 16 -55 30 -45 28 18 -2 49 -34
141 -75 215 -10 18 -18 39 -18 47 0 8 -8 20 -19 27 -17 12 -19 30 -23 168 -4
143 -7 162 -37 250 -18 52 -41 102 -52 112 -10 9 -33 47 -49 84 -39 86 -106
180 -167 235 -32 28 -38 36 -18 24 17 -10 39 -26 51 -36z m-5417 -4 c-61 -59
-116 -137 -145 -205 -15 -36 -38 -76 -50 -90 -13 -14 -30 -42 -39 -62 -19 -46
-23 -48 -17 -8 4 25 1 30 -16 30 -25 0 -40 -18 -48 -59 -6 -29 -54 -81 -75
-81 -15 0 -16 -3 76 171 5 11 15 19 22 19 6 0 13 6 16 13 4 9 7 9 18 -1 12
-11 12 -13 0 -10 -23 5 -24 -29 -2 -41 17 -10 22 -7 36 18 25 49 20 64 -17 59
-31 -5 -30 -3 35 58 37 35 67 66 67 69 0 12 -30 3 -56 -17 l-29 -22 25 27 c13
15 63 55 112 88 48 33 90 64 93 69 3 6 11 10 18 10 6 0 -5 -16 -24 -35z m56
-24 c-3 -5 1 -11 9 -13 12 -3 12 -8 0 -43 -7 -22 -14 -58 -15 -80 -1 -36 -2
-37 -8 -11 -8 37 -41 46 -35 9 3 -15 1 -22 -6 -18 -5 3 -10 13 -10 21 0 8 -4
12 -10 9 -13 -8 -13 1 0 25 6 11 17 17 25 14 17 -7 20 7 4 23 -7 7 -2 19 16
42 25 29 43 42 30 22z m1235 -15 c0 -7 -5 -17 -12 -24 -9 -9 -9 -15 1 -24 10
-11 18 -6 42 22 33 39 40 21 13 -33 -27 -53 -51 -60 -85 -26 -34 34 -11 117
28 102 7 -3 13 -11 13 -17z m2859 10 c22 -26 21 -72 0 -95 -11 -11 -26 -21
-34 -21 -21 0 -65 59 -65 88 l0 27 26 -32 c33 -43 48 -42 40 0 -8 45 9 62 33
33z m-3559 -116 c-54 -106 3 -220 112 -220 59 0 113 26 157 75 l32 36 -6 -33
c-6 -40 -23 -120 -36 -169 -17 -68 -11 -289 11 -376 37 -149 102 -276 190
-373 42 -46 55 -70 37 -70 -7 0 -30 -9 -50 -19 -32 -16 -39 -17 -43 -5 -2 8
-6 21 -9 29 -2 8 8 26 22 40 31 28 24 43 -12 27 -14 -6 -30 -9 -37 -7 -16 6
-119 -84 -122 -106 -3 -25 -35 -69 -50 -69 -7 0 -19 7 -26 15 -7 8 -23 15 -35
15 -27 0 -53 26 -33 33 10 3 8 10 -7 26 l-19 23 24 18 c14 11 36 22 50 25 14
4 34 14 45 23 13 11 12 8 -4 -10 -13 -15 -27 -25 -31 -23 -4 2 -7 -2 -7 -10 0
-22 12 -18 63 21 26 19 64 45 85 57 38 21 50 37 29 37 -15 0 -71 -29 -94 -49
-11 -9 -16 -10 -12 -4 4 7 28 27 54 45 34 24 42 34 30 36 -27 5 -172 -76 -233
-130 -29 -26 -60 -48 -67 -48 -17 0 -40 24 -93 98 l-38 54 39 34 c21 19 48 37
59 39 11 2 31 6 45 8 14 2 34 8 45 12 11 3 -9 -9 -44 -29 -70 -38 -88 -53 -79
-61 3 -3 25 5 49 19 24 13 72 34 107 47 34 13 62 29 62 36 0 7 9 9 23 5 20 -5
21 -4 8 11 -12 15 -10 17 23 17 45 0 76 15 76 37 0 11 -6 14 -22 8 -37 -12
-91 -11 -95 2 -3 8 6 10 31 6 23 -3 36 -2 36 5 0 17 -60 24 -115 12 -27 -5
-65 -13 -82 -16 -20 -4 -33 -13 -33 -21 0 -11 7 -13 24 -9 15 4 28 0 36 -9 9
-11 8 -14 -7 -12 -11 0 -35 -6 -54 -15 -19 -9 -46 -20 -61 -23 -23 -6 -28 -4
-28 12 0 10 -4 23 -9 28 -7 8 -61 150 -61 161 0 8 66 -10 72 -20 4 -7 49 -11
125 -11 107 0 118 2 115 18 -2 12 4 17 23 17 14 0 25 4 25 9 0 15 -41 21 -147
21 -62 0 -103 4 -103 10 0 6 -7 10 -16 10 -14 0 -14 -3 -4 -15 10 -12 9 -15
-6 -15 -11 0 -35 4 -55 9 -25 6 -46 4 -69 -5 -32 -14 -32 -14 -26 10 7 27 -10
168 -24 203 -14 33 20 50 58 28 15 -8 54 -26 87 -40 33 -13 54 -24 48 -25 -7
0 -13 -7 -13 -16 0 -9 6 -14 13 -11 45 19 47 19 47 3 0 -11 9 -16 33 -16 17 0
66 -2 107 -4 73 -5 74 -4 45 11 -41 21 -41 21 -19 38 16 12 17 14 2 15 -9 0
-29 6 -45 14 -15 8 -48 20 -73 26 -47 13 -74 22 -115 42 -31 14 -47 1 -21 -18
11 -7 17 -17 13 -20 -9 -9 -47 2 -86 26 -30 19 -33 24 -27 58 13 91 19 112 28
112 9 0 304 -140 360 -171 25 -13 38 -11 38 5 0 8 -20 22 -45 32 -36 13 -44
21 -40 35 4 12 1 21 -9 25 -9 3 -13 10 -10 15 5 9 -109 66 -188 95 -41 14 -52
2 -20 -22 31 -24 -7 -15 -48 11 -25 16 -40 33 -40 45 0 40 59 114 135 168 43
31 48 27 25 -18z m4310 -40 c26 -25 52 -60 58 -79 11 -31 9 -35 -19 -63 -16
-17 -33 -28 -36 -24 -4 3 -1 12 5 18 15 15 16 28 2 28 -5 0 -41 -15 -80 -34
-38 -19 -70 -32 -70 -29 0 4 -8 -1 -17 -9 -10 -9 -33 -19 -51 -23 -23 -5 -32
-11 -28 -21 3 -8 -1 -17 -9 -21 -9 -3 -14 -12 -13 -21 2 -9 -13 -24 -36 -36
-44 -23 -58 -46 -29 -46 10 0 101 41 202 91 101 49 185 89 186 87 2 -2 11 -32
20 -68 l17 -65 -27 -22 c-32 -28 -55 -30 -55 -4 0 18 -7 17 -97 -15 -54 -18
-108 -34 -120 -34 -12 0 -25 -4 -28 -10 -3 -5 -17 -10 -31 -10 -26 0 -33 -17
-9 -26 12 -5 10 -10 -10 -26 -49 -38 -36 -40 153 -17 46 5 91 14 100 18 10 5
34 16 55 25 21 9 35 21 32 26 -4 6 -12 7 -18 4 -8 -5 -9 -3 -2 4 6 6 27 18 48
27 49 20 52 12 37 -102 -6 -48 -12 -98 -13 -110 -2 -21 -5 -22 -37 -15 -19 4
-60 6 -90 6 -92 -2 -310 -21 -317 -27 -3 -4 5 -11 19 -16 14 -5 28 -17 31 -25
9 -23 267 -24 267 -1 0 10 10 15 31 15 35 0 35 1 -7 -110 -37 -99 -33 -97 -98
-66 -31 15 -62 24 -69 20 -8 -5 -9 -4 -2 4 6 6 21 12 35 14 14 1 24 8 23 13
-3 14 -137 44 -195 45 -51 0 -63 -14 -25 -30 17 -8 13 -9 -19 -4 -28 3 -45 1
-50 -7 -11 -19 25 -39 75 -40 25 -1 38 -3 29 -6 -31 -8 -20 -17 65 -52 45 -18
105 -46 134 -62 35 -19 54 -25 59 -17 4 6 1 14 -7 19 -8 4 -23 14 -33 22 -16
12 -17 15 -3 20 18 7 94 -49 89 -67 -8 -26 -107 -146 -121 -146 -9 1 -41 23
-71 51 -49 45 -51 48 -17 29 20 -12 37 -17 37 -12 0 25 -170 142 -207 142 -13
0 -11 -5 8 -26 l24 -26 -43 17 c-47 19 -62 15 -41 -11 13 -16 12 -16 -8 -6
-12 7 -27 12 -34 12 -19 0 7 -25 64 -61 29 -18 69 -48 90 -66 36 -32 67 -43
67 -24 0 5 -12 19 -27 30 -16 11 -23 21 -17 21 6 0 17 -7 24 -15 7 -8 20 -15
30 -15 30 0 45 -27 30 -54 -7 -13 -9 -29 -6 -35 7 -10 -6 -16 -27 -12 -5 1
-22 -8 -38 -20 -29 -20 -31 -20 -50 -4 -10 10 -19 28 -19 41 0 32 -115 135
-144 129 -12 -3 -27 -1 -35 4 -12 7 -4 26 39 97 74 124 108 226 120 355 13
144 2 315 -29 419 -25 87 -25 87 9 42 42 -56 94 -82 164 -82 44 0 60 5 85 26
52 43 62 132 24 208 l-15 28 33 -18 c18 -11 54 -39 79 -64z m457 18 c-3 -8 -6
-5 -6 6 -1 11 2 17 5 13 3 -3 4 -12 1 -19z m-5587 -2 c0 -2 -8 -10 -17 -17
-16 -13 -17 -12 -4 4 13 16 21 21 21 13z m5894 -32 c3 -8 2 -12 -4 -9 -6 3
-10 10 -10 16 0 14 7 11 14 -7z m-5718 -51 c-4 -4 -12 -1 -19 7 -9 10 -9 11 1
6 7 -4 12 -2 13 6 0 11 2 11 6 0 3 -7 2 -16 -1 -19z m64 -79 c0 -8 -4 -14 -10
-14 -5 0 -10 13 -10 29 0 41 -16 47 -42 18 -17 -19 -23 -40 -25 -93 -4 -90 -5
-94 -15 -88 -5 3 -5 34 -2 70 8 73 -8 89 -22 22 -7 -34 -14 -44 -32 -46 -20
-3 -22 0 -17 25 10 44 27 72 46 78 10 3 20 14 23 23 3 10 23 25 43 33 l38 17
12 -30 c7 -17 13 -37 13 -44z m5710 46 c0 -5 -5 -10 -11 -10 -5 0 -7 5 -4 10
3 6 8 10 11 10 2 0 4 -4 4 -10z m-5420 -48 c0 -15 -2 -15 -10 -2 -13 20 -13
33 0 25 6 -3 10 -14 10 -23z m-70 -22 c32 0 31 -15 -2 -42 -27 -23 -30 -29
-18 -37 23 -16 -18 -27 -43 -12 -19 12 -19 11 -13 -24 4 -20 10 -44 13 -53 3
-10 2 -13 -4 -7 -11 15 -63 17 -79 4 -11 -9 -18 -8 -29 1 -18 15 -20 34 -2 25
6 -4 4 0 -6 8 -12 10 -14 17 -8 22 6 3 11 1 11 -4 0 -6 5 -11 11 -11 6 0 9 9
6 20 -3 11 -1 18 3 15 5 -3 11 1 14 7 3 7 3 3 1 -9 -7 -26 3 -33 33 -22 19 7
21 12 12 28 -10 20 -8 33 16 88 18 39 35 46 53 22 7 -10 21 -19 31 -19z m61
-33 c-10 -9 -11 -8 -5 6 3 10 9 15 12 12 3 -3 0 -11 -7 -18z m5288 -133 c20
-112 8 -234 -34 -339 -17 -43 -15 -29 9 80 16 70 15 115 -4 115 -6 0 -10 -12
-10 -27 0 -24 -9 -55 -36 -132 -2 -8 -6 -12 -9 -9 -2 2 2 26 10 52 16 53 11
77 -11 49 -18 -25 -17 -19 11 65 18 53 25 95 25 150 0 43 3 95 7 117 l6 40 13
-50 c6 -28 17 -77 23 -111z m-5845 94 c-26 -156 -30 -172 -37 -148 l-7 25 -30
-35 -31 -35 22 42 c26 53 21 75 -10 42 -51 -53 -79 -175 -51 -219 8 -12 10
-11 10 8 0 12 4 22 10 22 5 0 9 -8 7 -17 -1 -10 2 -19 8 -21 5 -2 16 22 24 52
12 45 19 56 35 56 18 0 21 -7 22 -48 1 -38 0 -42 -7 -23 -9 23 -10 23 -29 6
-11 -10 -20 -29 -20 -42 0 -57 -59 -133 -103 -133 l-30 0 25 20 c33 25 39 68
21 148 -25 106 2 174 84 216 45 22 62 42 77 89 8 24 14 21 10 -5z m5761 -33
c2 -14 -1 -25 -6 -25 -5 0 -9 14 -9 32 0 36 11 31 15 -7z m-5623 -127 c8 -22
7 -35 -7 -65 -16 -33 -19 -35 -26 -18 -4 11 -8 32 -8 48 -1 15 -5 27 -11 27
-5 0 -10 14 -10 31 0 22 5 32 20 36 11 3 21 10 21 17 1 6 4 -2 6 -19 2 -16 9
-42 15 -57z m51 -23 l6 -60 -14 50 c-16 60 -18 93 -6 80 5 -6 11 -37 14 -70z
m5551 -52 c-19 -80 -121 -232 -198 -296 -48 -40 -57 -57 -30 -57 36 0 224 212
224 254 0 5 3 7 6 3 3 -3 -1 -20 -9 -39 -8 -18 -23 -55 -33 -83 -10 -27 -37
-73 -61 -101 -41 -49 -53 -74 -35 -74 14 0 59 53 85 100 65 121 85 141 61 64
-19 -65 -63 -140 -113 -196 -45 -50 -74 -69 -144 -94 l-41 -14 42 38 c23 22
42 48 42 59 0 22 -35 63 -54 63 -8 0 -24 8 -37 18 -22 18 -22 19 -4 43 10 13
38 39 62 57 23 18 43 39 43 47 0 19 1 19 -56 -5 -26 -11 -49 -19 -51 -17 -2 2
4 20 12 41 11 26 29 44 66 64 28 15 66 37 84 49 21 13 32 17 29 8 -3 -8 -34
-32 -69 -55 -75 -49 -96 -70 -70 -70 51 0 171 94 222 175 15 25 29 45 31 45 1
0 -1 -12 -4 -27z m-5630 -91 c4 -31 9 -75 12 -97 4 -36 3 -38 -7 -15 -16 35
-38 130 -39 164 0 52 27 11 34 -52z m65 36 c2 -5 15 -33 30 -62 21 -43 23 -52
10 -49 -9 3 -22 22 -29 44 -8 22 -17 42 -22 45 -12 7 -10 -30 3 -63 15 -37 18
-74 7 -67 -5 3 -7 11 -5 17 2 7 -5 28 -15 48 -10 20 -22 54 -25 74 -6 36 -5
37 18 30 13 -4 26 -12 28 -17z m111 -46 c0 -4 18 -19 40 -32 22 -14 40 -33 40
-43 0 -19 20 -18 67 5 27 13 49 -1 56 -37 3 -17 0 -25 -10 -25 -8 0 -11 5 -7
12 4 6 3 8 -3 5 -6 -4 -25 -2 -42 4 -41 14 -50 5 -23 -24 11 -12 21 -26 21
-32 0 -5 5 -11 12 -14 7 -2 9 1 4 9 -6 9 -3 9 14 1 16 -9 21 -21 21 -49 0 -31
-5 -40 -30 -54 l-30 -17 -6 38 c-5 29 -19 52 -55 87 -28 28 -49 57 -49 70 0
24 -32 58 -45 47 -4 -5 -5 -3 -2 4 4 6 2 13 -5 15 -9 3 -8 9 2 21 16 18 30 22
30 9z m-366 -124 c-4 -13 -10 -25 -15 -28 -14 -9 -45 -92 -63 -167 -20 -82
-36 -87 -36 -10 0 39 6 60 27 91 16 23 31 43 34 46 3 3 16 24 29 48 26 47 35
54 24 20z m335 -26 c4 -7 17 -14 29 -15 11 0 20 -6 19 -11 -1 -6 8 -15 21 -21
12 -5 22 -15 22 -22 0 -18 21 -27 30 -13 11 17 28 -52 25 -100 -2 -31 -5 -35
-30 -35 -31 -1 -74 33 -68 53 3 8 -1 10 -13 5 -11 -4 -15 -2 -11 4 6 10 -43
117 -63 137 -6 6 -10 15 -10 22 0 15 39 12 49 -4z m-316 -27 c-3 -9 -8 -14
-10 -11 -3 3 -2 9 2 15 9 16 15 13 8 -4z m6067 6 c0 -5 3 -17 7 -27 4 -11 3
-15 -4 -11 -14 9 -24 47 -12 47 5 0 9 -4 9 -9z m-5005 -31 c7 -12 -32 -12 -60
0 -16 7 -13 9 17 9 20 1 40 -3 43 -9z m5029 -35 c3 -8 1 -15 -4 -15 -6 0 -10
7 -10 15 0 8 2 15 4 15 2 0 6 -7 10 -15z m-6074 -200 c-7 -55 -16 -116 -20
-135 l-8 -35 -1 42 c-1 43 -18 93 -32 93 -10 0 -19 -27 -20 -58 0 -19 -7 -6
-23 39 -13 36 -26 72 -30 80 -4 8 1 3 12 -11 22 -27 32 -24 35 9 1 24 17 29
17 6 0 -8 4 -15 8 -15 5 0 15 33 22 73 7 40 20 78 29 85 14 12 16 8 19 -30 2
-24 -2 -88 -8 -143z m265 144 c15 -23 45 -61 67 -85 22 -24 36 -44 30 -44 -7
0 -9 -11 -5 -30 4 -21 0 -36 -11 -49 -16 -17 -15 -20 14 -45 17 -14 27 -26 21
-26 -5 0 -23 11 -38 24 -24 21 -26 27 -15 43 25 36 23 43 -22 97 -30 34 -44
59 -40 70 3 8 -4 31 -16 51 -30 49 -19 44 15 -6z m475 -120 c0 -31 140 -199
166 -199 6 0 18 10 26 22 15 22 15 22 82 -36 51 -45 65 -63 60 -78 -8 -26 7
-42 108 -109 86 -59 111 -68 123 -49 4 6 18 4 37 -6 17 -9 53 -16 80 -16 l49
1 -22 -30 c-30 -43 -103 -95 -167 -120 -48 -18 -77 -22 -188 -22 -140 0 -157
5 -209 55 -16 16 -41 31 -55 34 -43 9 -90 33 -97 50 -3 9 -1 25 5 35 17 26 15
65 -4 84 -15 14 -14 17 10 36 29 22 26 39 -5 39 -11 0 -34 13 -50 30 -23 22
-29 37 -27 64 3 46 -12 60 -77 76 l-55 13 48 16 c65 22 112 58 128 98 13 30
34 38 34 12z m4150 -5 c0 -2 -9 0 -20 6 -11 6 -20 13 -20 16 0 2 9 0 20 -6 11
-6 20 -13 20 -16z m424 -9 c27 -50 82 -88 146 -101 48 -11 50 -12 20 -13 -19
-1 -54 -10 -77 -21 -38 -17 -43 -23 -43 -52 0 -51 -32 -96 -75 -104 -41 -7
-46 -28 -9 -47 23 -12 24 -15 10 -26 -18 -15 -21 -63 -6 -92 20 -36 -12 -66
-91 -83 -15 -3 -37 -17 -50 -31 -47 -51 -73 -58 -219 -58 l-135 -1 -77 37
c-52 25 -89 52 -118 84 l-42 48 59 5 c33 3 67 11 76 19 14 11 20 11 32 1 18
-15 28 -12 118 46 102 66 119 83 113 114 -4 21 5 33 60 79 65 53 66 53 80 32
8 -11 21 -21 28 -21 22 0 122 115 147 169 13 28 26 50 29 51 3 0 14 -16 24
-35z m-4653 -5 c-19 -16 -37 -28 -39 -25 -6 6 51 54 63 54 6 0 -5 -13 -24 -29z
m-566 -10 c3 -5 1 -10 -4 -10 -6 0 -11 5 -11 10 0 6 2 10 4 10 3 0 8 -4 11
-10z m346 -16 c9 -11 8 -14 -5 -14 -10 0 -24 -7 -32 -15 -24 -23 -32 -18 -29
18 2 17 3 33 4 33 5 6 53 -11 62 -22z m70 -15 c32 -16 12 -29 -44 -27 -45 1
-47 2 -14 5 29 3 37 8 33 19 -6 17 -1 18 25 3z m-433 -46 c19 -16 25 -30 24
-58 -1 -19 -6 -43 -11 -53 -13 -22 -14 -6 -2 36 9 29 8 33 -7 30 -10 -2 -22
-22 -30 -52 -10 -33 -26 -59 -54 -84 -22 -21 -54 -50 -71 -66 -25 -23 -40 -28
-74 -28 -57 2 -89 18 -38 20 20 1 46 8 58 17 12 8 29 15 38 15 40 0 119 140
119 210 0 37 12 70 18 49 2 -7 16 -24 30 -36z m1172 -13 c0 -5 -5 -10 -11 -10
-5 0 -7 5 -4 10 3 6 8 10 11 10 2 0 4 -4 4 -10z m4338 -7 c-10 -2 -26 -2 -35
0 -10 3 -2 5 17 5 19 0 27 -2 18 -5z m-4387 -42 c-17 -14 -31 -32 -31 -38 0
-18 10 -16 33 5 14 12 12 5 -8 -26 -15 -23 -25 -46 -21 -50 8 -7 31 19 70 78
13 19 31 42 41 50 9 8 3 -8 -14 -35 -17 -27 -31 -58 -31 -69 0 -10 -3 -16 -7
-13 -9 9 -43 -22 -43 -40 0 -19 27 -16 39 5 10 16 10 15 11 -3 0 -11 7 -33 15
-49 8 -15 15 -30 15 -32 0 -7 -126 85 -144 105 -10 11 -16 24 -15 30 8 22 93
108 107 108 9 0 2 -10 -17 -26z m4759 -12 c0 -18 -2 -19 -15 -9 -8 7 -15 16
-15 21 0 5 7 9 15 9 9 0 15 -9 15 -21z m-4205 -7 c-3 -3 -11 0 -18 7 -9 10 -8
11 6 5 10 -3 15 -9 12 -12z m2531 9 c-3 -5 -16 -11 -28 -14 -22 -6 -22 -5 -4
8 22 17 40 20 32 6z m1679 -94 c11 -16 37 -44 58 -60 29 -24 40 -28 50 -18 9
9 9 14 -3 21 -12 8 -12 10 -1 10 11 0 9 5 -5 21 l-19 22 25 -13 c42 -21 52
-32 39 -40 -8 -6 -8 -13 1 -30 29 -55 -33 -35 -109 35 -33 31 -64 70 -70 88
-8 26 -8 28 2 13 7 -10 21 -32 32 -49z m-4049 28 c63 -16 89 -32 34 -20 -38 8
-109 33 -98 34 4 1 33 -6 64 -14z m2199 -6 c-33 -11 -66 -18 -75 -16 -8 2 3 7
25 12 22 4 47 11 55 16 8 5 24 8 35 8 11 -1 -7 -10 -40 -20z m-3485 -10 c10
-18 10 -19 -7 -10 -45 26 -49 31 -26 31 12 0 27 -9 33 -21z m1226 -4 c38 -14
78 -26 89 -26 17 -1 17 -2 2 -6 -17 -5 -129 29 -157 47 -24 15 -8 12 66 -15z
m791 -33 c27 -27 77 -63 111 -82 34 -18 61 -35 58 -37 -7 -7 -93 37 -112 58
-9 10 -22 19 -27 19 -6 0 -18 7 -28 16 -35 32 -42 9 -9 -29 58 -67 155 -111
265 -122 l60 -6 -24 20 c-13 12 -37 21 -55 21 -17 0 -38 5 -46 11 -16 10 17 7
114 -12 27 -5 72 -7 100 -4 40 5 47 4 34 -5 -54 -34 32 -36 132 -4 55 18 143
77 165 111 26 39 11 38 -47 -5 -60 -44 -126 -78 -135 -68 -3 3 11 13 33 22 47
19 150 98 164 125 7 12 21 19 38 18 38 -1 87 -22 87 -36 0 -7 5 -12 10 -10 6
1 9 8 9 15 -2 14 13 14 71 3 l40 -8 -38 -8 c-77 -15 -18 -26 159 -27 209 -2
176 -13 -81 -27 -119 -6 -178 -14 -230 -31 -82 -26 -136 -52 -155 -75 -18 -22
-6 -29 22 -14 59 33 55 -3 -4 -39 -39 -24 -96 -82 -81 -82 6 0 29 7 52 15 23
8 39 10 36 5 -3 -5 2 -13 11 -18 13 -7 11 -11 -13 -19 -73 -28 -108 -49 -95
-57 6 -3 13 -2 17 4 3 5 18 10 33 9 19 0 6 -8 -42 -25 -71 -24 -106 -48 -106
-70 0 -20 -50 -54 -79 -54 l-26 0 33 26 c46 36 62 74 62 142 0 70 -24 113 -82
146 -35 20 -38 20 -71 4 -52 -25 -88 -78 -96 -140 -5 -45 -3 -60 17 -96 27
-48 56 -72 90 -72 13 0 20 -4 17 -10 -7 -12 -63 -2 -92 16 -13 8 -29 27 -38
44 -9 18 -32 37 -61 49 -25 11 -43 25 -39 31 4 6 -4 10 -19 10 -14 0 -28 5
-31 10 -3 6 -13 10 -22 10 -13 0 -13 -3 -3 -16 12 -13 10 -14 -12 -4 -14 7
-25 19 -24 29 1 10 -8 17 -26 19 -34 4 -37 -15 -5 -28 15 -6 -11 -8 -78 -7
-55 1 -142 -2 -192 -6 -88 -8 -93 -7 -93 11 0 10 12 29 26 43 23 22 34 24 116
24 74 0 92 -3 102 -17 8 -11 26 -18 48 -18 36 0 78 23 65 36 -4 4 -13 2 -19
-4 -7 -7 -21 -12 -31 -12 -16 0 -17 2 -7 15 15 19 16 18 -40 36 -25 7 -38 15
-29 17 15 3 62 -7 117 -23 14 -5 22 -3 22 4 0 6 -7 14 -15 16 -49 16 -50 16
-37 24 8 4 24 6 38 3 30 -6 31 11 2 31 -23 16 -22 16 8 8 17 -5 41 -14 52 -20
48 -26 43 1 -6 34 -72 47 -161 75 -257 81 -239 13 -374 24 -379 33 -3 3 35 4
82 1 129 -8 275 -4 299 8 11 6 37 9 57 5 38 -6 52 12 19 24 -13 5 -9 9 18 19
59 21 75 17 126 -34z m-562 18 l30 -8 -30 0 c-16 0 -41 4 -55 8 l-25 8 25 0
c14 0 39 -4 55 -8z m385 5 c0 -12 -54 -25 -74 -18 -17 6 -14 8 19 14 22 3 43
7 48 8 4 0 7 -1 7 -4z m1525 -5 c-16 -4 -43 -8 -60 -8 l-30 0 30 8 c17 4 44 8
60 8 l30 0 -30 -8z m98 -17 c-7 -2 -19 -2 -25 0 -7 3 -2 5 12 5 14 0 19 -2 13
-5z m-2096 -9 c-3 -3 -12 -4 -19 -1 -8 3 -5 6 6 6 11 1 17 -2 13 -5z m33 -4
c0 -5 -5 -10 -11 -10 -5 0 -7 5 -4 10 3 6 8 10 11 10 2 0 4 -4 4 -10z m1974 1
c3 -5 -5 -11 -19 -13 -20 -4 -23 -3 -14 8 13 16 25 18 33 5z m-2056 -62 c31
-6 120 -11 197 -10 84 0 130 -3 115 -8 -14 -4 -97 -7 -185 -7 -149 1 -163 3
-198 25 -43 26 -48 35 -12 21 15 -6 52 -15 83 -21z m4312 27 c0 -2 -8 -10 -17
-17 -16 -13 -17 -12 -4 4 13 16 21 21 21 13z m-4550 -65 c0 -38 60 -93 126
-115 42 -14 52 -22 66 -56 30 -72 150 -108 253 -75 53 16 55 16 81 -4 24 -19
25 -21 8 -27 -97 -31 -224 -109 -304 -186 -72 -69 -136 -117 -198 -149 -115
-58 -250 -31 -301 60 -30 54 -23 99 24 149 36 40 58 38 31 -2 -9 -14 -16 -44
-16 -67 0 -86 105 -142 195 -104 79 33 105 79 105 190 0 58 -4 78 -22 105 -22
33 -81 71 -129 83 -21 6 -22 7 -7 24 32 36 68 121 68 162 0 23 5 41 10 41 6 0
10 -13 10 -29z m4493 22 c-7 -2 -19 -2 -25 0 -7 3 -2 5 12 5 14 0 19 -2 13 -5z
m-1944 -49 c-38 -40 -79 -61 -143 -73 -55 -10 -62 -9 -102 14 -51 30 -59 31
-90 6 -18 -14 -34 -18 -64 -14 -31 4 -40 2 -40 -9 0 -30 21 -36 104 -31 49 4
91 1 102 -5 16 -9 13 -11 -19 -17 -37 -7 -164 1 -193 12 -22 8 -17 -11 7 -25
27 -17 79 -25 164 -24 l70 1 -45 -14 c-25 -8 -56 -15 -70 -15 -55 0 -131 29
-199 75 l-70 48 -83 -6 -83 -6 50 14 c74 21 171 20 184 -2 10 -17 12 -16 32 7
17 22 19 22 10 3 -15 -30 -14 -33 8 -33 21 0 35 36 17 44 -6 2 6 5 27 5 25 1
37 5 35 13 -6 16 -268 16 -326 -1 -24 -6 -59 -14 -79 -17 -20 -2 -42 -9 -49
-15 -7 -6 -21 -9 -31 -6 -14 4 -13 5 5 6 12 0 22 6 22 11 0 6 8 10 18 10 10 0
27 6 38 14 24 17 13 16 307 22 152 2 237 0 237 -6 0 -6 5 -10 11 -10 6 0 9 7
5 15 -4 10 1 15 14 15 11 0 23 0 27 1 4 0 9 -4 11 -10 2 -6 -3 -8 -12 -5 -9 3
-16 2 -16 -2 1 -14 24 -39 38 -42 24 -5 120 30 149 54 38 31 52 30 22 -2z
m-2279 2 c0 3 7 1 15 -6 21 -17 19 -23 -13 -42 -19 -12 -32 -14 -45 -7 -35 20
-11 77 25 58 10 -5 18 -7 18 -3z m1190 4 c0 -5 -15 -10 -32 -9 -31 1 -32 1 -8
9 35 11 40 11 40 0z m1158 -15 c2 -32 37 -102 65 -133 l21 -23 -23 -6 c-122
-32 -180 -130 -151 -253 23 -94 99 -148 189 -135 91 14 136 97 95 176 -23 46
-7 49 32 7 29 -32 34 -45 34 -87 0 -90 -78 -151 -192 -151 -96 1 -180 47 -324
181 -29 26 -89 72 -135 102 -76 48 -101 61 -163 81 -19 7 -19 7 1 27 20 20 22
21 76 5 30 -9 70 -16 89 -16 78 0 170 54 180 104 2 14 22 27 63 43 37 14 74
38 98 63 21 22 39 40 41 40 1 0 3 -11 4 -25z m-2426 -19 c11 -17 -19 -28 -41
-15 -25 17 -16 42 13 33 11 -4 24 -12 28 -18z m586 9 c-2 -5 -14 -9 -28 -7
-14 2 -62 4 -107 5 -45 1 -85 6 -89 10 -4 4 45 6 109 5 72 -2 116 -7 115 -13z
m51 -12 c-12 -15 -12 -16 3 -11 10 4 19 1 22 -8 7 -18 -18 -19 -33 -1 -8 10
-7 17 1 25 18 18 22 14 7 -5z m-384 -22 c-6 -5 -25 10 -25 20 0 5 6 4 14 -3 8
-7 12 -15 11 -17z m90 9 c-10 -11 -20 -18 -23 -15 -7 6 18 35 31 35 5 0 2 -9
-8 -20z m5 -58 c0 -11 -12 -22 -31 -29 -26 -10 -36 -9 -58 3 l-26 15 37 -5
c30 -4 40 -1 48 15 13 24 30 25 30 1z m1140 -12 c-8 -5 -19 -10 -25 -10 -5 0
-3 5 5 10 8 5 20 10 25 10 6 0 3 -5 -5 -10z m2150 -9 c0 -23 -20 -47 -85 -101
-69 -58 -128 -131 -166 -207 -18 -34 -38 -63 -45 -63 -7 0 -19 -3 -28 -6 -33
-13 -29 27 6 64 20 20 47 54 61 75 30 46 234 257 248 257 5 0 9 -9 9 -19z
m-1822 -30 c58 -41 34 -78 -38 -57 -40 11 -266 14 -325 3 -49 -8 -13 5 61 22
49 12 196 13 189 2 -1 -4 15 -7 37 -8 43 -1 49 20 7 25 -13 2 -28 8 -33 13 -6
5 -30 10 -55 10 -43 1 -44 2 -16 10 55 14 138 5 173 -20z m-3135 -5 c3 3 11
-5 18 -18 11 -20 10 -21 -3 -11 -8 7 -17 10 -20 8 -3 -3 -13 7 -23 22 -18 28
-18 28 2 10 11 -9 22 -14 26 -11z m113 -87 c11 -19 -29 7 -51 32 l-20 23 32
-23 c18 -12 35 -27 39 -32z m820 -8 c-3 -5 -18 -12 -33 -16 -31 -7 -103 -72
-103 -91 0 -7 -4 -15 -9 -18 -14 -9 -7 26 12 62 10 18 32 42 50 52 32 20 93
28 83 11z m3065 -10 c34 -21 54 -45 69 -88 9 -24 4 -20 -32 20 -32 36 -57 54
-98 67 l-55 19 42 1 c25 0 56 -8 74 -19z m-2287 -44 c-2 -7 -26 -20 -53 -30
-59 -21 -141 -66 -141 -77 0 -5 16 -2 36 6 l37 15 -34 -41 c-19 -23 -41 -53
-49 -67 -16 -27 -32 -32 -38 -14 -2 6 3 11 12 11 9 0 16 7 16 15 0 8 -6 15
-14 15 -17 0 -49 -47 -41 -60 3 -6 0 -10 -7 -10 -20 0 -167 -129 -184 -161 -7
-15 -14 -37 -14 -47 0 -34 -141 -122 -195 -122 -14 0 -25 -5 -25 -11 0 -15 96
-5 116 12 8 7 17 9 21 6 3 -4 -15 -15 -39 -26 -55 -23 -76 -48 -32 -37 40 10
104 43 131 69 13 11 25 18 28 15 3 -2 -18 -23 -45 -45 -28 -23 -47 -44 -42
-47 8 -5 35 10 91 52 31 24 41 18 19 -10 -17 -20 -100 -74 -128 -83 -13 -4
-31 0 -46 10 -17 11 -39 15 -74 12 -39 -4 -56 -1 -76 15 -25 20 -25 20 -5 35
12 8 21 20 21 28 0 30 31 47 73 40 43 -8 65 8 45 32 -7 9 -7 13 0 13 6 0 16
-9 22 -21 11 -19 13 -19 29 -5 10 9 25 16 34 16 11 0 17 8 17 22 0 12 10 32
22 45 29 31 16 40 -24 16 -133 -79 -359 -45 -428 66 -16 25 -30 54 -30 64 0 9
-4 17 -10 17 -19 0 -10 -58 16 -95 43 -64 71 -83 164 -111 l45 -14 -52 4
c-131 12 -215 105 -198 220 10 61 21 76 40 52 8 -11 15 -29 15 -41 0 -36 63
-116 113 -142 48 -24 45 -4 -5 40 -54 48 -92 124 -82 164 5 18 9 21 15 11 5
-7 9 -23 9 -36 0 -54 65 -138 135 -175 32 -18 55 -22 120 -21 120 2 174 33
306 173 118 127 190 181 292 222 40 15 73 28 74 28 1 1 0 -5 -3 -12z m1470 -4
c3 -4 13 -8 22 -9 22 -3 112 -52 159 -85 22 -16 88 -80 146 -142 134 -142 185
-171 304 -171 114 -1 173 34 236 139 20 33 24 54 24 118 0 42 3 77 7 77 14 0
12 -159 -2 -195 -5 -13 -31 -45 -59 -73 -28 -28 -51 -54 -51 -57 0 -15 31 -1
67 30 50 43 78 87 87 138 13 73 49 26 49 -65 0 -106 -72 -172 -202 -183 l-56
-5 50 13 c66 18 103 38 141 79 40 41 63 103 46 120 -9 9 -13 7 -17 -8 -26 -85
-75 -133 -164 -160 -82 -25 -206 -14 -294 27 -34 16 -48 4 -19 -17 12 -8 22
-26 22 -40 0 -17 5 -24 20 -24 11 0 20 -4 20 -10 0 -16 30 -12 36 5 4 8 14 15
23 14 10 0 11 -2 4 -6 -19 -7 -16 -30 4 -42 11 -6 24 -6 36 1 29 15 66 1 73
-27 3 -14 15 -32 26 -39 19 -13 18 -15 -12 -36 -22 -16 -40 -20 -66 -17 -19 3
-38 8 -41 11 -3 3 -17 -4 -31 -14 -35 -28 -49 -25 -119 20 -58 38 -81 66 -67
79 4 3 9 0 12 -7 6 -18 92 -73 103 -66 5 3 -6 18 -24 34 l-32 30 45 -24 c25
-13 57 -26 73 -30 46 -11 31 13 -25 39 -29 14 -46 25 -38 25 8 -1 26 -7 40
-15 29 -16 90 -20 90 -5 0 6 -9 10 -20 10 -24 0 -112 43 -156 76 -17 12 -34
36 -37 51 -8 40 -48 96 -79 111 -15 7 -35 23 -45 35 -40 47 -60 59 -82 48 -17
-10 -20 -9 -15 4 4 8 10 15 15 15 5 0 9 7 9 15 0 25 -33 14 -42 -15 -3 -10
-10 -4 -23 20 -10 19 -29 48 -43 65 -17 21 -21 30 -11 34 16 5 51 -37 42 -53
-3 -6 0 -6 8 2 11 10 11 16 -2 39 -18 28 -31 36 -126 82 -34 16 -65 26 -69 23
-4 -4 -4 -1 0 6 8 13 19 16 30 5z m-623 -76 c-24 -40 -51 -121 -51 -156 0 -27
14 -76 37 -130 l14 -34 -23 15 c-13 8 -23 24 -23 34 0 13 -7 19 -22 19 -30 1
-41 15 -20 26 13 8 17 24 17 75 0 68 21 126 63 171 29 32 33 21 8 -20z m-2332
-35 c12 -22 11 -23 -8 -13 -11 6 -23 16 -27 23 -4 7 -3 8 4 4 7 -4 12 -2 12 5
0 15 3 11 19 -19z m553 -14 c-4 -17 -6 -18 -13 -5 -11 19 0 55 11 37 4 -7 5
-21 2 -32z m1683 -18 c-12 -30 -25 -64 -29 -75 -6 -16 -12 -8 -31 42 -12 35
-27 69 -33 75 -8 10 3 13 52 13 l63 0 -22 -55z m-440 11 l30 -6 -46 -23 c-57
-28 -89 -81 -96 -161 -4 -45 -10 -61 -27 -71 -19 -12 -20 -11 -8 2 18 22 5 71
-17 64 -11 -4 -10 -1 4 9 11 9 20 20 20 25 0 4 3 12 8 16 16 17 5 25 -30 22
-29 -2 -39 -8 -41 -23 -1 -11 -17 -28 -35 -38 -29 -17 -30 -20 -14 -32 12 -8
14 -15 8 -20 -17 -10 -13 -38 4 -31 11 4 9 -4 -7 -24 -24 -33 -18 -51 9 -29
16 12 15 11 -1 -8 -24 -29 -33 -22 -41 31 -11 73 19 159 79 223 67 71 122 91
201 74z m906 -1 c48 -13 124 -82 150 -134 22 -45 37 -173 23 -199 -8 -13 -14
-11 -44 15 -19 16 -24 23 -10 14 44 -28 56 -12 19 25 l-21 21 21 -7 c15 -4 21
-2 21 8 0 9 -6 18 -12 20 -10 4 -10 7 0 15 17 11 5 40 -19 47 -11 4 -17 11
-13 16 10 16 -16 39 -45 39 -22 1 -24 2 -8 11 9 5 17 14 17 18 0 12 -59 35
-67 27 -4 -3 1 -29 11 -56 18 -51 15 -100 -4 -70 -6 8 -10 29 -10 45 0 39 -51
102 -99 123 l-36 16 30 7 c44 10 56 10 96 -1z m-2703 -59 c11 -6 10 -10 -4
-15 -10 -4 -24 0 -33 9 -14 13 -13 15 4 15 11 0 26 -4 33 -9z m2334 -23 c-7
-7 -12 -8 -12 -2 0 14 12 26 19 19 2 -3 -1 -11 -7 -17z m1417 -102 c-30 -30
-69 -43 -69 -23 0 13 79 57 89 50 3 -2 -6 -14 -20 -27z m-94 -26 c-3 -5 -12
-10 -18 -10 -7 0 -6 4 3 10 19 12 23 12 15 0z m-922 -15 c-3 -9 3 -22 13 -31
18 -14 18 -14 -3 -4 -22 10 -33 50 -13 50 5 0 7 -7 3 -15z m808 8 c-11 -5 -11
-7 0 -14 11 -7 10 -9 -3 -9 -18 0 -23 11 -11 23 3 4 11 7 17 6 6 0 5 -3 -3 -6z
m-3765 -15 c4 -7 6 -34 5 -61 -2 -46 0 -53 41 -95 24 -26 32 -38 18 -29 -59
40 -79 33 -35 -13 19 -20 39 -30 58 -30 25 0 27 2 17 14 -10 13 -7 13 19 3 36
-13 52 -3 25 17 -17 13 -14 14 31 13 28 -1 64 2 80 6 30 8 30 8 10 -10 -19
-18 -101 -50 -135 -53 -8 0 -41 -3 -72 -6 -39 -4 -58 -2 -58 5 0 6 6 11 12 11
7 0 2 7 -10 16 -28 19 -51 8 -25 -13 17 -13 16 -13 -4 -3 -12 5 -34 25 -48 44
-31 40 -53 144 -36 173 8 15 10 9 11 -29 0 -27 5 -48 10 -48 6 0 10 21 11 48
1 32 3 40 7 24 9 -31 26 -29 30 3 3 26 25 34 38 13z m4884 -18 c0 -26 17 -34
29 -13 7 14 9 11 8 -16 -2 -42 20 -54 26 -14 3 23 4 22 6 -10 2 -64 -61 -167
-102 -167 -6 0 -2 6 9 14 10 8 15 18 11 22 -11 11 -42 -11 -41 -29 1 -11 -10
-15 -45 -15 -43 0 -45 1 -19 12 35 15 68 46 68 63 0 17 -15 17 -34 -2 -29 -30
-29 -14 1 18 39 41 57 91 42 120 -9 16 -8 23 6 33 22 16 35 10 35 -16z m-2950
-76 c0 -6 11 -19 25 -28 29 -19 32 -48 8 -67 -16 -12 -17 -12 -6 1 6 9 9 21 4
28 -5 8 -17 5 -44 -13 -47 -33 -63 -61 -41 -73 14 -8 14 -10 1 -15 -10 -4 -31
12 -61 45 -25 28 -46 54 -46 59 0 8 66 63 110 91 23 15 26 15 38 0 6 -9 12
-21 12 -28z m1062 6 c24 -16 53 -38 62 -49 18 -19 17 -22 -30 -75 -26 -31 -51
-56 -55 -56 -3 0 -12 6 -18 14 -10 12 -8 13 10 9 22 -6 22 -6 4 25 -24 40 -82
73 -94 53 -6 -9 -10 -10 -16 -2 -4 7 9 29 29 51 20 22 36 45 36 50 0 18 26 11
72 -20z m-679 5 c-3 -9 -8 -14 -10 -11 -3 3 -2 9 2 15 9 16 15 13 8 -4z m-50
-10 c-3 -9 -8 -14 -10 -11 -3 3 -2 9 2 15 9 16 15 13 8 -4z m41 -85 c-5 -75
-57 -284 -78 -313 -13 -16 -18 -15 -92 20 -44 20 -81 38 -83 39 -2 2 10 25 27
51 l31 47 -6 -42 c-7 -51 9 -56 27 -9 8 17 31 62 52 99 47 82 48 92 6 83 -33
-7 -33 -7 -14 13 18 20 84 42 116 38 9 -1 14 -11 14 -26z m175 16 c13 -15 14
-47 5 -94 -5 -26 -9 -30 -20 -21 -20 16 -28 5 -15 -19 6 -12 11 -38 11 -58 0
-21 4 -51 9 -68 5 -17 15 -50 22 -73 16 -58 32 -55 25 5 -5 45 -5 46 5 12 11
-38 29 -63 29 -41 0 7 5 9 10 6 6 -3 10 -17 10 -29 0 -20 -8 -25 -60 -36 -65
-14 -196 -8 -230 10 -21 11 -17 40 5 40 7 0 16 11 19 25 9 36 23 31 19 -7 l-4
-33 20 24 c12 13 21 37 21 53 0 16 4 37 9 46 4 9 11 52 15 95 7 74 6 79 -14
84 -15 4 -20 13 -20 37 0 18 5 37 12 44 16 16 103 15 117 -2z m142 -3 c31 -6
56 -29 45 -40 -4 -4 -16 -1 -27 6 -12 7 -23 10 -25 8 -5 -4 102 -215 117 -231
18 -20 21 6 6 46 l-17 43 30 -35 c16 -19 30 -42 30 -50 0 -10 -30 -31 -76 -53
-72 -36 -77 -37 -89 -20 -32 42 -95 309 -79 334 3 6 17 8 31 4 14 -3 38 -9 54
-12z m999 -18 c14 -19 14 -19 -2 -6 -10 7 -18 18 -18 24 0 6 1 8 3 6 1 -2 9
-13 17 -24z m1027 0 c23 0 45 -3 49 -7 4 -5 0 -8 -9 -8 -9 0 -17 -5 -17 -11 0
-8 12 -10 34 -6 28 4 34 3 29 -9 -8 -20 -34 -17 -108 12 -68 27 -102 54 -49
38 16 -4 48 -8 71 -9z m-2551 -5 l32 0 -59 -117 c-32 -64 -62 -120 -67 -125
-9 -9 -114 51 -128 73 -3 6 6 23 21 38 23 22 25 23 14 4 -30 -49 6 -34 61 27
55 60 72 90 52 90 -4 0 -14 -6 -22 -12 -8 -7 -6 -3 5 10 13 16 26 21 40 18 11
-3 34 -6 51 -6z m740 -11 c19 -22 19 -22 -3 -8 -45 27 -34 -2 27 -71 70 -79
98 -94 69 -37 -10 19 -7 18 17 -5 23 -22 25 -29 15 -42 -16 -19 -104 -76 -119
-76 -6 0 -19 19 -29 43 -10 23 -37 79 -60 124 l-42 82 42 4 c23 2 47 4 53 5 6
1 19 -8 30 -19z m65 -6 c13 -16 12 -17 -3 -4 -10 7 -18 15 -18 17 0 8 8 3 21
-13z"/>
<path d="M6345 3380 c-3 -6 1 -13 10 -16 19 -8 30 0 20 15 -8 14 -22 14 -30 1z"/>
<path d="M6370 3336 c0 -28 20 -66 34 -66 23 0 29 18 14 50 -13 31 -48 42 -48
16z"/>
<path d="M540 3375 c0 -8 9 -15 20 -15 11 0 20 7 20 15 0 8 -9 15 -20 15 -11
0 -20 -7 -20 -15z"/>
<path d="M1232 2978 c3 -7 13 -15 22 -16 12 -3 17 1 14 10 -3 7 -13 15 -22 16
-12 3 -17 -1 -14 -10z"/>
<path d="M1535 2481 c-65 -38 -125 -90 -104 -91 13 0 146 84 174 111 20 20
-22 7 -70 -20z"/>
<path d="M750 2616 c0 -15 50 -60 57 -52 3 2 -3 18 -12 35 -16 32 -45 42 -45
17z"/>
<path d="M3105 1880 c3 -5 15 -10 26 -10 11 0 17 5 14 10 -3 6 -15 10 -26 10
-11 0 -17 -4 -14 -10z"/>
<path d="M3160 1860 c0 -5 5 -10 10 -10 6 0 10 5 10 10 0 6 -4 10 -10 10 -5 0
-10 -4 -10 -10z"/>
<path d="M2885 1830 c-8 -13 20 -24 40 -16 8 3 15 10 15 16 0 13 -47 13 -55 0z"/>
<path d="M2530 1539 c0 -5 5 -7 10 -4 6 3 10 8 10 11 0 2 -4 4 -10 4 -5 0 -10
-5 -10 -11z"/>
<path d="M4387 1504 c-9 -10 2 -24 19 -24 8 0 14 7 14 15 0 15 -21 21 -33 9z"/>
<path d="M2940 1511 c0 -13 26 -32 33 -24 14 13 6 33 -13 33 -11 0 -20 -4 -20
-9z"/>
<path d="M2908 1468 c-28 -10 -35 -22 -19 -33 11 -6 61 15 61 26 0 14 -15 16
-42 7z"/>
<path d="M3935 1520 c-9 -15 14 -40 31 -33 19 7 18 29 -2 37 -21 8 -22 8 -29
-4z"/>
<path d="M2878 1185 c-41 -37 -49 -60 -19 -52 14 3 17 0 14 -14 -8 -30 19 -23
65 17 44 37 52 54 27 54 -8 0 -15 7 -15 15 0 25 -33 17 -72 -20z"/>
<path d="M3970 1209 c0 -7 8 -18 18 -26 15 -12 13 -12 -11 -2 -45 20 -45 -1 2
-42 47 -42 76 -51 68 -20 -3 14 0 17 14 14 36 -10 17 25 -35 65 -31 24 -56 29
-56 11z"/>
<path d="M2800 1637 c-46 -14 -108 -55 -133 -89 -28 -37 -14 -47 19 -14 68 68
182 105 267 86 60 -13 87 -13 87 0 0 6 -11 10 -24 10 -14 0 -28 5 -31 10 -8
13 -140 11 -185 -3z"/>
<path d="M3090 1640 c0 -5 7 -10 15 -10 8 0 15 5 15 10 0 6 -7 10 -15 10 -8 0
-15 -4 -15 -10z"/>
<path d="M3800 1640 c0 -5 7 -10 15 -10 8 0 15 5 15 10 0 6 -7 10 -15 10 -8 0
-15 -4 -15 -10z"/>
<path d="M4280 1451 c0 -6 4 -13 10 -16 6 -3 7 1 4 9 -7 18 -14 21 -14 7z"/>
<path d="M4470 1321 c0 -15 107 -120 115 -113 6 6 -19 47 -44 73 -27 28 -71
52 -71 40z"/>
</g>
</svg>
